<mxfile host="app.diagrams.net" modified="2024-06-04T10:02:08.081Z" agent="Mozilla/5.0 (X11; Linux x86_64) AppleWebKit/537.36 (KHTML, like Gecko) Chrome/125.0.0.0 Safari/537.36" version="24.4.13" etag="rNmj68Nl3KFHrRyTuN-G" type="github">
  <diagram name="Page-1" id="t5vNoybsQB-Miv2EApCO">
    <mxGraphModel>
      <root>
        <mxCell id="0" />
        <mxCell id="1" parent="0" />
      </root>
    </mxGraphModel>
  </diagram>
</mxfile>
